<svg id="svg" version="1.1" viewBox="0 0 300 300" width="300" height="300" xmlns="http://www.w3.org/2000/svg">
<defs>
<clipPath id="clip-1">
<rect x="0" y="0" transform="scale(0.15,0.15)" width="2000" height="2000" fill="none"/>
</clipPath>
</defs>
<g clip-path="url(#clip-1)" fill="none" fill-rule="nonzero" stroke="none" stroke-width="1" stroke-linecap="butt" stroke-linejoin="miter" stroke-miterlimit="10" stroke-dasharray="" stroke-dashoffset="0" font-family="none" font-weight="none" font-size="none" text-anchor="none" style="mix-blend-mode: normal">

<path d="M217.3035,80.00085c3.0165,-0.29175 4.6725,-0.11895 7.4685,1.13325c11.6865,5.2332 9.939,11.7234 9.885,23.32485l-0.0285,12.67155l0.0105,43.344l-0.0045,33.864c-0.0045,5.79 0.0585,11.6055 -0.0615,17.3865c-0.117,2.607 -1.3845,5.9655 -3.4455,7.665c-2.277,1.761 -5.3715,3.6885 -8.1,4.5585c-8.4645,2.7015 -16.0935,-3.4575 -22.896,-7.5585c-5.8455,-3.48 -11.67,-6.996 -17.472,-10.5465c-15.387,-9.2115 -30.708,-18.531 -45.96225,-27.96c-12.32745,-7.617 -24.96435,-14.9775 -37.21785,-22.7265c-4.3329,-2.943 -3.41805,-10.6923 1.8681,-11.9787c1.6695,-0.4062 3.76905,-0.26625 5.28315,0.4953c2.16585,1.0893 4.2675,2.4798 6.34575,3.7326c4.42785,2.6418 8.84025,5.3103 13.23675,8.0043l65.46885,39.6165l15.825,9.5775c2.8605,1.7175 5.7075,3.459 8.655,5.031c1.353,0.723 2.9325,1.1835 4.263,0.1125c0.9585,-0.7725 1.0725,-1.089 1.1955,-2.292c0.168,-1.647 0.123,-3.2985 0.123,-4.956l0.0015,-7.6155v-25.7835l-0.0015,-47.0052c0.0015,-8.2785 0.0255,-16.5816 -0.033,-24.8607c-0.0075,-0.80265 -0.0915,-1.4769 -0.6105,-2.1162c-0.909,-1.1235 -2.559,-1.4331 -3.816,-0.684c-5.2395,3.1206 -10.638,6.25935 -15.6045,9.789c-0.042,0.0396 -0.084,0.07905 -0.1245,0.1185c-0.117,1.6374 -0.033,4.4238 -0.033,6.14355l0.021,12.2382c0.0015,2.13105 0.114,4.62135 -0.1755,6.71475c-0.792,5.7198 -8.6505,7.14645 -11.5305,2.307c-1.197,-2.0109 -0.969,-6.15015 -0.9735,-8.4513l-0.0105,-8.71995l-0.0165,-8.76315c-0.006,-4.50015 -0.3495,-9.01755 3.891,-11.9307c4.881,-3.29475 10.008,-6.22215 14.9595,-9.40665c3.297,-2.11965 5.664,-3.9183 9.6165,-4.4733z" fill="#e0e7f0"/>
<path d="M77.9832,80.00535c5.7693,-0.81075 9.0894,1.6488 13.74795,4.45515l9.0963,5.49585l32.87415,19.8402l40.8339,24.8328c5.1285,3.0774 10.242,6.1821 15.3375,9.31395c2.7795,1.67925 5.598,3.2688 8.3475,5.09085c6.3825,4.24935 2.6205,14.22585 -4.9065,12.22035c-2.577,-0.687 -7.572,-4.0485 -10.011,-5.514l-12.852,-7.7208l-58.1544,-35.1396c-7.8933,-4.8513 -15.83655,-9.62055 -23.82855,-14.3073c-2.09445,-1.21275 -4.068,-2.57925 -6.21585,-3.7158c-2.3583,-1.24815 -3.8679,-1.13025 -5.44125,1.1343l-0.117,0.1713c-0.26025,2.17515 -0.16095,6.55695 -0.15945,8.89245l0.0198,15.01995l-0.0096,58.4445l0.0033,18.8625c0.0027,3.3675 -0.1098,7.8285 0.1551,11.127l0.1029,0.1575c0.89205,1.326 2.55255,2.196 4.1097,1.4385c2.238,-1.0875 4.61025,-2.601 6.71925,-3.9615c2.9538,-1.9035 6.2445,-3.684 9.0633,-5.748c0.10455,-1.854 0.0297,-4.3155 0.02445,-6.204l-0.04215,-12.1125c-0.00015,-4.5885 -0.94215,-11.088 5.00265,-12.2805c1.7361,-0.3585 3.54345,0 5.0112,0.9945c3.255,2.229 2.6973,6.1605 2.70075,9.6285l0.0099,7.8165l0.0093,9.7245c-0.0039,3.711 0.3933,7.434 -1.88205,10.599c-0.5775,0.8115 -1.281,1.527 -2.08425,2.1165c-0.8766,0.6555 -1.85145,1.2225 -2.781,1.803c-5.6121,3.5055 -11.1045,7.239 -16.82925,10.557c-2.51805,1.3935 -5.28855,1.749 -8.12535,1.4625c-3.3717,-0.339 -6.89625,-2.4 -9.63345,-4.302c-5.20005,-3.6135 -4.44045,-10.3305 -4.3872,-15.8475c0.0285,-2.9475 -0.0201,-5.9655 -0.01185,-8.943l0.0222,-33.648l0.01125,-45.3507l-0.0078,-15.25725c-0.00015,-4.5045 -0.68085,-11.0085 2.2704,-14.60715c2.4543,-2.9928 8.1927,-6.04035 12.0072,-6.53955z" fill="#e0e7f0"/>
<path d="M45.8121,97.52415c4.46145,-0.31635 7.82535,1.81845 7.34835,6.8322c-0.3564,3.74595 -5.0673,5.64585 -8.03775,7.4601c-4.00545,2.40465 -7.9893,4.84485 -11.9514,7.3203c-2.0976,1.2927 -4.611,2.72085 -6.58515,4.1355l-0.00315,35.57475c0.0051,7.1925 -0.1851,15.504 0.05895,22.623c7.9302,5.0025 16.8789,10.0545 24.6861,15.333c2.4504,1.6575 2.59605,7.0395 0.1131,8.8395c-1.17795,0.8535 -1.37475,1.095 -2.84835,1.497c-3.1341,0.543 -4.8042,-0.957 -7.317,-2.5005c-2.0391,-1.2645 -4.08765,-2.5125 -6.14565,-3.744l-11.13495,-6.75c-2.12595,-1.275 -4.57545,-2.643 -6.5676,-4.0815c-1.0056,-0.7275 -2.1723,-2.388 -2.6031,-3.522c-0.35694,-0.939 -0.53002,-2.13 -0.54712,-3.147c-0.07382,-4.3935 -0.04292,-8.823 -0.04098,-13.2165l0.00487,-24.3729l-0.0093,-16.5204c-0.00209,-2.93895 -0.0949,-5.96205 0.06694,-8.89125c0.28074,-5.0811 4.65118,-6.93195 8.38814,-9.18705l9.0393,-5.45415c2.2353,-1.33365 4.4583,-2.688 6.6687,-4.0626c1.85145,-1.15335 5.44485,-3.5508 7.41705,-4.1655z" fill="#4fc3f7"/>
<path d="M249.816,97.53705c4.0875,-0.22305 5.4525,1.36665 8.8245,3.40275l8.769,5.2701l8.892,5.40075c6.762,4.1316 8.1015,4.8789 7.77,13.33875c-0.1035,2.6343 -0.006,5.94525 -0.0045,8.64195l0.0075,25.68015l0.0075,16.5315c0,2.7735 0.09,5.64 -0.0495,8.4045c-0.2535,5.0385 -4.668,6.8145 -8.31,9.0375c-3.606,2.229 -7.2315,4.425 -10.8765,6.591c-1.9455,1.1685 -11.043,6.909 -12.435,7.287c-4.3275,0.768 -7.923,-2.2605 -7.2945,-6.723c0.5565,-3.9405 5.577,-6.0375 8.73,-7.9425l9.7815,-6.039c2.121,-1.287 6.09,-3.5925 7.9995,-5.022l0.1635,-0.1245c0.147,-3.858 0.0045,-8.592 0.003,-12.537l-0.006,-24.9405l0.0135,-12.8358c0.003,-1.9749 0.1065,-5.88375 -0.198,-7.70025c-0.93,-0.8238 -4.044,-2.6667 -5.202,-3.3792l-13.035,-7.9287c-2.4675,-1.5009 -7.08,-3.5886 -7.98,-6.43215c-1.2135,-3.83445 0.6585,-6.79455 4.4295,-7.98135z" fill="#4fc3f7"/>
<path d="M101.8161,19.08645c1.42185,-0.1671 2.6757,0.01155 3.9708,0.6663c3.6957,1.8684 3.1377,5.71905 3.1383,9.222l-0.0051,8.07495c-0.00375,10.3884 -0.20595,21.66795 0.1176,31.97865c6.7089,3.92895 13.72995,8.3907 20.3778,12.498l7.59975,4.70115c1.2633,0.78225 3.2427,1.8375 4.3503,2.74875c4.30245,3.54 3.32775,10.02465 -2.57265,10.88295c-0.86685,0.0762 -2.13315,0.12345 -2.8872,-0.3216c-5.83815,-3.4452 -11.54775,-7.1118 -17.34855,-10.61655l-13.36185,-8.16045c-2.1492,-1.31535 -7.4637,-3.91095 -7.99035,-6.4305c-0.7209,-3.44835 -0.46095,-7.68375 -0.46455,-11.2608l-0.0162,-15.84135l-0.02205,-13.6167c-0.0087,-2.95695 -0.0552,-5.8719 0.10755,-8.82825c0.17325,-3.14925 1.93005,-5.05035 5.0064,-5.69655z" fill="#4fc3f7"/>
<path d="M194.196,19.086c1.479,-0.1041 2.385,-0.09015 3.8415,0.5004c0.993,0.34275 2.73,1.79775 2.9775,2.90145c0.753,3.35055 0.483,8.1747 0.4815,11.53305l-0.0075,15.4896l0.0285,14.4735c-0.009,3.49125 0.351,7.78875 -0.8655,11.06115c-0.3795,1.01685 -1.4235,1.8969 -2.319,2.48625c-3.228,2.12415 -6.696,4.1448 -9.9915,6.13845l-13.7385,8.475c-2.3145,1.4016 -4.6185,2.81865 -6.9135,4.251c-1.737,1.08795 -4.107,2.6994 -5.928,3.4221c-2.499,0.4791 -5.1345,-0.26085 -6.5925,-2.4462c-1.497,-1.9467 -0.729,-6.561 1.2345,-7.9938c3.195,-2.33235 7.128,-4.5078 10.536,-6.59895l22.407,-13.7979l-0.0495,-28.695l-0.0105,-9.6795c-0.006,-5.05365 -1.017,-9.70665 4.9095,-11.5206z" fill="#4fc3f7"/>
<path d="M137.1663,204.9525c4.1823,-0.2715 7.43595,2.8215 6.66315,7.071c-0.4527,2.49 -1.66485,3.45 -3.70305,4.716c-2.3328,1.4505 -4.67145,2.8845 -7.00755,4.3215l-15.2775,9.378c-2.8908,1.785 -6.08265,3.6795 -8.86125,5.5995c-0.1791,3.513 -0.0717,7.932 -0.07305,11.499l0.01065,20.9985c0.00345,3.789 0.0747,7.638 -0.066,11.4255c-0.114,3.069 -2.3898,4.7895 -5.22135,5.4075c-2.83425,0.24 -6.19965,-1.29 -6.6495,-4.368c-0.4077,-2.787 -0.2538,-5.9895 -0.25395,-8.8365l0.0039,-15.444l-0.01305,-15.7845c-0.00135,-2.211 -0.111,-6.288 0.09435,-8.412c0.11865,-1.257 0.56775,-2.46 1.302,-3.4875c0.4473,-0.6285 1.13655,-1.3485 1.79055,-1.7715c4.66485,-3.021 9.59505,-5.7915 14.3253,-8.7075c4.86375,-3.0615 9.7521,-6.084 14.66445,-9.0675c1.82205,-1.116 6.3459,-4.2345 8.2719,-4.5375z" fill="#4fc3f7"/>
<path d="M159.9075,204.951c3.1365,-0.0315 4.899,1.8615 7.428,3.3795l14.9955,9.1545l10.0275,6.0975c10.5435,6.3645 9.1965,5.919 9.1575,17.94l-0.0165,13.6275l0.018,14.3295c0.0135,3.3765 0.0135,6.732 -0.1005,10.1085c-0.114,3.393 -1.7775,4.878 -4.932,5.7195c-0.282,0.027 -0.567,0.0465 -0.8505,0.06c-2.883,0.12 -5.6685,-1.8105 -6.0945,-4.749c-0.291,-2.0085 -0.216,-4.0725 -0.213,-6.1005l0.015,-8.205c0.018,-10.065 0.102,-20.373 -0.0315,-30.426c-10.395,-6.7365 -21.228,-12.993 -31.7445,-19.545c-1.782,-1.11 -3.045,-2.4765 -3.1995,-4.692c-0.2625,-3.789 1.8345,-6.21 5.541,-6.699z" fill="#4fc3f7"/>
</g>
</svg>
